{"title":"Marco.Polo.Season 2.S02.1080p.WEBRip.HEVC.x265.DD5.1-CHRONOS","uid":15245291,"size":6321210245,"categoryP":"video","categoryS":"tv_shows","magnet":"?xt=urn:btih:eeaa3396ad3e1cf325a46d541647a412d338e621&amp;dn=Marco.Polo.Season+2.S02.1080p.WEBRip.HEVC.x265.DD5.1-CHRONOS&amp;tr=udp%3A%2F%2Ftracker.leechers-paradise.org%3A6969&amp;tr=udp%3A%2F%2Fzer0day.ch%3A1337&amp;tr=udp%3A%2F%2Fopen.demonii.com%3A1337&amp;tr=udp%3A%2F%2Ftracker.coppersurfer.tk%3A6969&amp;tr=udp%3A%2F%2Fexodus.desync.com%3A6969","seeders":62,"leechers":22,"uploader":"Midnight44","files":10,"time":1467996778,"description":"General\r\nComplete name                            : Marco.Polo.S02.1080p.WEBRip.HEVC.x265.AAC-5.1-CHRONOSMarco.Polo.2014.S02E01.1080p.WEBRip.X265-CHRONOS.mp4\r\nFormat                                   : MPEG-4\r\nFormat profile                           : Base Media / Version 2\r\nCodec ID                                 : mp42 (isom/iso2/mp41)\r\nFile size                                : 601 MiB\r\nDuration                                 : 55 min\r\nOverall bit rate mode                    : Variable\r\nOverall bit rate                         : 1 516 kb/s\r\nEncoded date                             : UTC 2016-07-06 03:46:52\r\nTagged date                              : UTC 2016-07-06 03:46:52\r\nWriting application                      : HandBrake 0.10.5 2016021100\r\n\r\nVideo\r\nID                                       : 1\r\nFormat                                   : HEVC\r\nFormat/Info                              : High Efficiency Video Coding\r\nFormat profile                           :   @Main\r\nCodec ID                                 : hev1\r\nCodec ID/Info                            : High Efficiency Video Coding\r\nDuration                                 : 55 min\r\nBit rate                                 : 1 285 kb/s\r\nWidth                                    : 1 920 pixels\r\nHeight                                   : 960 pixels\r\nDisplay aspect ratio                     : 2.000\r\nFrame rate mode                          : Variable\r\nFrame rate                               : 23.976 (24000/1001) FPS\r\nMinimum frame rate                       : 23.810 FPS\r\nMaximum frame rate                       : 24.390 FPS\r\nColor space                              : YUV\r\nChroma subsampling                       : 4:2:0\r\nBit depth                                : 8 bits\r\nBits/(Pixel*Frame)                       : 0.029\r\nStream size                              : 510 MiB (85%)\r\nWriting library                          : x265 1.9:[Windows][GCC 4.9.0][64 bit] 8bit\r\nEncoded date                             : UTC 2016-07-06 03:46:52\r\nTagged date                              : UTC 2016-07-06 03:46:52\r\nColor range                              : Limited\r\nColor primaries                          : BT.709\r\nTransfer characteristics                 : BT.709\r\nMatrix coefficients                      : BT.709\r\n\r\nAudio\r\nID                                       : 2\r\nFormat                                   : AAC\r\nFormat/Info                              : Advanced Audio Codec\r\nFormat profile                           : LC\r\nCodec ID                                 : 40\r\nDuration                                 : 55 min\r\nBit rate mode                            : Variable\r\nBit rate                                 : 224 kb/s\r\nChannel(s)                               : 2 channels\r\nChannel positions                        : Front: L R\r\nSampling rate                            : 48.0 kHz\r\nFrame rate                               : 46.875 FPS (1024 spf)\r\nCompression mode                         : Lossy\r\nStream size                              : 88.9 MiB (15%)\r\nTitle                                    : Stereo / Stereo\r\nLanguage                                 : English\r\nDefault                                  : Yes\r\nAlternate group                          : 1\r\nEncoded date                             : UTC 2016-07-06 03:46:52\r\nTagged date                              : UTC 2016-07-06 03:46:52","torrent":{"xt":"urn:btih:eeaa3396ad3e1cf325a46d541647a412d338e621","amp;dn":"Marco.Polo.Season+2.S02.1080p.WEBRip.HEVC.x265.DD5.1-CHRONOS","amp;tr":["udp%3A%2F%2Ftracker.leechers-paradise.org%3A6969","udp%3A%2F%2Fzer0day.ch%3A1337","udp%3A%2F%2Fopen.demonii.com%3A1337","udp%3A%2F%2Ftracker.coppersurfer.tk%3A6969","udp%3A%2F%2Fexodus.desync.com%3A6969"],"infoHash":"eeaa3396ad3e1cf325a46d541647a412d338e621","infoHashBuffer":{"type":"Buffer","data":[238,170,51,150,173,62,28,243,37,164,109,84,22,71,164,18,211,56,230,33]},"announce":[],"urlList":[]}}